<?xml version="1.0" encoding="utf-8"?>
<!-- Generator: Adobe Illustrator 22.0.0, SVG Export Plug-In . SVG Version: 6.00 Build 0)  -->
<svg version="1.1" id="Layer_1" xmlns="http://www.w3.org/2000/svg" xmlns:xlink="http://www.w3.org/1999/xlink" x="0px" y="0px"
	 viewBox="0 0 136.9 136.9" style="enable-background:new 0 0 136.9 136.9;" xml:space="preserve">
<style type="text/css">
	.st0{fill:#EDBF00;}
	.st1{fill:#FFFFFF;}
</style>
<g>
	<g>
		<g>
			<circle class="st0" cx="68.5" cy="68.5" r="63.3"/>
		</g>
	</g>
</g>
<path class="st1" d="M91.1,38.6v59.8c0,7.5-6.1,13.6-13.6,13.6H59.4c-7.4,0-13.6-6-13.6-13.6V38.6C45.8,31,52,25,59.4,25h18.1
	C85,25,91.1,31,91.1,38.6z M77.9,37.7v-2.3c0-1.1-0.3-1.5-1.4-1.5H60.6c-1.1,0-1.4,0.4-1.4,1.5v2.3c0,1.1,0.3,1.4,1.4,1.4h15.8
	C77.5,39.1,77.9,38.8,77.9,37.7z M63.1,99.4c0,3.1,2.4,5.5,5.4,5.5c3.1,0,5.5-2.4,5.5-5.5c0-2.9-2.4-5.4-5.5-5.4
	C65.5,94.1,63.1,96.5,63.1,99.4z"/>
</svg>
