<?xml version="1.0" encoding="utf-8"?>
<!-- Generator: Adobe Illustrator 22.0.0, SVG Export Plug-In . SVG Version: 6.00 Build 0)  -->
<svg version="1.1" id="Layer_1" xmlns="http://www.w3.org/2000/svg" xmlns:xlink="http://www.w3.org/1999/xlink" x="0px" y="0px"
	 viewBox="0 0 136.9 136.9" style="enable-background:new 0 0 136.9 136.9;" xml:space="preserve">
<style type="text/css">
	.st0{fill:#9AD88F;}
	.st1{fill:#FFFFFF;}
</style>
<g>
	<g>
		<g>
			<circle class="st0" cx="68.5" cy="68.5" r="63.3"/>
		</g>
	</g>
</g>
<path class="st1" d="M68.5,30.1c21.1,0,38.3,17.2,38.3,38.4s-17.2,38.3-38.3,38.3c-21.2,0-38.4-17.1-38.4-38.3S47.3,30.1,68.5,30.1z
	 M54,56.9c-0.3,0.9-0.2,1.3,0.7,1.6l1.8,0.5c0.8,0.3,1.1,0.1,1.5-0.8c1.8-4.4,5-7.4,11.3-7.4c6.7,0,10.3,3.8,10.3,8.7
	c0,6.2-3.7,8.5-7.3,10.9c-3.5,2.2-6.7,4.8-6.7,10.9c0,0.9,0.3,1.1,1.1,1.1h1.4c0.9,0,1.2-0.3,1.2-1.1c0-4.2,2.6-6.1,5.4-8
	c4-2.6,9.1-5.4,9.1-13.9c0-6.8-5.3-12.5-14.4-12.5C60.8,46.9,56.2,51.1,54,56.9z M67.7,87.1h-0.3c-1.9,0-2.5,0.5-2.5,2.4v0.3
	c0,1.9,0.6,2.4,2.5,2.4h0.3c1.8,0,2.3-0.6,2.3-2.4v-0.3C70.1,87.6,69.5,87.1,67.7,87.1z"/>
</svg>
