<?xml version="1.0" encoding="utf-8"?>
<!-- Generator: Adobe Illustrator 22.0.0, SVG Export Plug-In . SVG Version: 6.00 Build 0)  -->
<svg version="1.1" id="Layer_1" xmlns="http://www.w3.org/2000/svg" xmlns:xlink="http://www.w3.org/1999/xlink" x="0px" y="0px"
	 viewBox="0 0 136.9 136.9" style="enable-background:new 0 0 136.9 136.9;" xml:space="preserve">
<style type="text/css">
	.st0{fill:#D35959;}
	.st1{fill:#FFFFFF;}
</style>
<g>
	<g>
		<g>
			<g>
				<circle class="st0" cx="68.5" cy="68.5" r="63.3"/>
			</g>
		</g>
	</g>
</g>
<g>
	<path class="st1" d="M88.6,104.1H52.4c-6.1,0-11.2-5-11.2-11.1V42c0-6.1,5.1-11.1,11.2-11.1h26.1V48c0,2.3,1.8,4.1,4.1,4.1h17.2v41
		C99.7,99.1,94.7,104.1,88.6,104.1z M86.9,64v-1.9c0-0.9-0.3-1.3-1.2-1.3H55.2c-0.9,0-1.2,0.4-1.2,1.3V64c0,0.9,0.3,1.2,1.2,1.2
		h30.4C86.6,65.2,86.9,65,86.9,64z M86.9,77.4v-1.9c0-0.9-0.3-1.2-1.2-1.2H55.2c-0.9,0-1.2,0.3-1.2,1.2v1.9c0,0.9,0.3,1.2,1.2,1.2
		h30.4C86.6,78.6,86.9,78.4,86.9,77.4z M86.9,91v-1.9c0-0.9-0.3-1.2-1.2-1.2H55.2c-0.9,0-1.2,0.3-1.2,1.2V91c0,0.9,0.3,1.2,1.2,1.2
		h30.4C86.6,92.2,86.9,92,86.9,91z M82.4,48V31.7L98.9,48H82.4z"/>
</g>
</svg>
