<?xml version="1.0" encoding="utf-8"?>
<!-- Generator: Adobe Illustrator 22.0.0, SVG Export Plug-In . SVG Version: 6.00 Build 0)  -->
<svg version="1.1" id="Layer_1" xmlns="http://www.w3.org/2000/svg" xmlns:xlink="http://www.w3.org/1999/xlink" x="0px" y="0px"
	 viewBox="0 0 136.9 136.9" style="enable-background:new 0 0 136.9 136.9;" xml:space="preserve">
<style type="text/css">
	.st0{fill:#2DB58E;}
	.st1{fill:#FFFFFF;}
</style>
<g>
	<g>
		<g>
			<g>
				<circle class="st0" cx="68.5" cy="68.5" r="63.3"/>
			</g>
		</g>
	</g>
</g>
<path class="st1" d="M98.4,34.8v45.9c0,3.1-1.6,5.6-4.1,7.5c-5,3.6-12.9,3.6-17.9,0c-5.4-3.9-5.4-10.6,0-14.6
	c5-3.7,13.1-3.7,18.1,0.1V35.2l-37.9,7.9v46.3c0,3.1-1.6,5.7-4.1,7.5c-5,3.7-12.9,3.7-17.9,0c-5.4-3.9-5.4-10.6,0-14.6
	c5.1-3.7,13.1-3.6,18.1,0.2V42.8c0-1.6,1.2-3.1,2.9-3.5l38.5-8C96.3,30.9,98.4,32.5,98.4,34.8z"/>
</svg>
