<?xml version="1.0" encoding="utf-8"?>
<!-- Generator: Adobe Illustrator 22.0.0, SVG Export Plug-In . SVG Version: 6.00 Build 0)  -->
<svg version="1.1" id="Layer_1" xmlns="http://www.w3.org/2000/svg" xmlns:xlink="http://www.w3.org/1999/xlink" x="0px" y="0px"
	 viewBox="0 0 136.9 136.9" style="enable-background:new 0 0 136.9 136.9;" xml:space="preserve">
<style type="text/css">
	.st0{fill:#67B8CB;}
	.st1{fill:#FFFFFF;}
</style>
<g>
	<g>
		<g>
			<circle class="st0" cx="68.5" cy="68.5" r="63.3"/>
		</g>
	</g>
</g>
<g>
	<path class="st1" d="M95.8,73.1v5.6c0,4.7-3.8,8.4-8.4,8.4H72.4v18.5c0,0.7-0.2,1.1-1.1,1.1h-1.8c-0.7,0-1.1-0.3-1.1-1.1V87h-30
		c-0.7,0-1.5-0.2-2-0.8l-8.3-8.3c-1.1-1.1-1.1-2.9,0-4.1l8.3-8.3c0.6-0.6,1.3-0.8,2-0.8h48.8C92,64.6,95.8,68.4,95.8,73.1z
		 M104.8,51.2l-8.1,8c-0.6,0.6-1.3,0.9-2,0.9H47.5c-4.5,0-8.2-3.8-8.2-8.2v-5.3c0-4.6,3.8-8.2,8.2-8.2h21v-4.9
		c0-0.8,0.3-1.1,1.1-1.1h1.8c0.8,0,1.1,0.2,1.1,1.1v4.9h22.2c0.7,0,1.5,0.2,2,0.8l8.1,8.1C105.9,48.3,105.9,50.1,104.8,51.2z"/>
</g>
</svg>
