<?xml version="1.0" encoding="utf-8"?>
<!-- Generator: Adobe Illustrator 22.0.0, SVG Export Plug-In . SVG Version: 6.00 Build 0)  -->
<svg version="1.1" id="Layer_1" xmlns="http://www.w3.org/2000/svg" xmlns:xlink="http://www.w3.org/1999/xlink" x="0px" y="0px"
	 viewBox="0 0 136.9 136.9" style="enable-background:new 0 0 136.9 136.9;" xml:space="preserve">
<style type="text/css">
	.st0{fill:#D35387;}
	.st1{fill:#FFFFFF;}
</style>
<g>
	<g>
		<g>
			<g>
				<g>
					<circle class="st0" cx="68.5" cy="68.5" r="63.3"/>
				</g>
			</g>
		</g>
	</g>
</g>
<path class="st1" d="M66.5,100.1V86.3H38.6c-6.8,0-12.3-5.6-12.3-12.3V45.3c0-6.8,5.5-12.3,12.3-12.3h59.6c6.8,0,12.4,5.5,12.4,12.3
	V74c0,6.7-5.6,12.3-12.4,12.3H70.3v13.7h17.3c0.8,0,1,0.3,1,1v1.8c0,0.8-0.2,1-1,1H49.2c-0.8,0-1-0.2-1-1v-1.8c0-0.7,0.2-1,1-1H66.5
	z"/>
</svg>
